# xmcd
#
# Track frame offsets: 
#        150
#        11268
#        24406
#        36018
#        45185
#        55501
#        64725
#        78901
#        90949
#        100032
#        113004
#        124121
#        133735
#        143292
#        153114
#        163939
#        174066
#        186239
#        198619
#        208101
#        218491
#        228893
#        239204
#        249310
#
# Disc length: 3446 seconds
#
# Revision: 0
# Processed by: cddbd v1.5.2PL0 Copyright (c) Steve Scherf et al.
# Submitted via: ExactAudioCopyFreeDBPlugin 1.0
#
DISCID=250d7418
DTITLE=The Stanley Brothers - Country Pickin' And Singin' and The Stanle
DTITLE=y Brothers And The Clinch Mountain Boys
DYEAR=1900
DGENRE=Country
TTITLE0=Orange Blossom Special
TTITLE1=Who Will Call You Sweetheart
TTITLE2=A Voice From On High
TTITLE3=Big Tilda
TTITLE4=Angel Band
TTITLE5=Clinch Mountain Blues
TTITLE6=The Flood
TTITLE7=Poison Lies
TTITLE8=You're Still On My Mind
TTITLE9=The Cry From The Cross
TTITLE10=Tragic Love
TTITLE11=Fling Ding
TTITLE12=How Mountain Girls Can Love
TTITLE13=Heaven Seemed So Near
TTITLE14=Mastertone March
TTITLE15=She's More To Be Pitied
TTITLE16=Keep A Memory
TTITLE17=Train 45
TTITLE18=Think Of What You've Done
TTITLE19=Your Selfish Heart
TTITLE20=Clinch Mountain Backstep
TTITLE21=The Memory Of Your Smile
TTITLE22=Love Me, Darling, Just Tonight
TTITLE23=Midnight Ramble
EXTD=
EXTT0=
EXTT1=
EXTT2=
EXTT3=
EXTT4=
EXTT5=
EXTT6=
EXTT7=
EXTT8=
EXTT9=
EXTT10=
EXTT11=
EXTT12=
EXTT13=
EXTT14=
EXTT15=
EXTT16=
EXTT17=
EXTT18=
EXTT19=
EXTT20=
EXTT21=
EXTT22=
EXTT23=
PLAYORDER=
